# xmcd
#
# Track frame offsets: 
#        180
#        16942
#        28861
#        48289
#
# Disc length: 1064 seconds
#
# Revision: 3
# Processed by: cddbd v1.5.2PL0 Copyright (c) Steve Scherf et al.
# Submitted via: ExactAudioCopy v0.99pb5
#
DISCID=27042604
DTITLE=Die GZSZ All-Stars - Tag Für Tag (MCD)
DYEAR=1994
DGENRE=Pop
TTITLE0=Tag Für Tag (Radio Mix)
TTITLE1=Tag Für Tag (Join The Artist Mix - TV-Originalaufnahme - Folge
TTITLE1=480)
TTITLE2=Tag Für Tag (Karaoke Mix)
TTITLE3=Tag Für Tag (Bonus Mix)
EXTD=
EXTT0=
EXTT1=
EXTT2=
EXTT3=
PLAYORDER=
